<?xml version="1.0" encoding="UTF-8"?>
<!DOCTYPE svg PUBLIC "-//W3C//DTD SVG 1.1//EN" "http://www.w3.org/Graphics/SVG/1.1/DTD/svg11.dtd">
<!-- Creator: CorelDRAW -->
<svg xmlns="http://www.w3.org/2000/svg" xml:space="preserve" width="33.6956mm" height="43.6033mm" version="1.1" style="shape-rendering:geometricPrecision; text-rendering:geometricPrecision; image-rendering:optimizeQuality; fill-rule:evenodd; clip-rule:evenodd"
viewBox="0 0 14.09 18.24"
 xmlns:xlink="http://www.w3.org/1999/xlink"
 xmlns:xodm="http://www.corel.com/coreldraw/odm/2003">
 <defs>
  <style type="text/css">
   <![CDATA[
    .fil0 {fill:#FF6600}
   ]]>
  </style>
 </defs>
 <g id="Capa_x0020_1">
  <metadata id="CorelCorpID_0Corel-Layer"/>
  <path class="fil0" d="M2.05 9.7c0,1.33 0.05,2.18 0.46,3.32 0.7,1.94 2.23,2.06 3.21,0.74 0.38,-0.51 0.64,-1 0.83,-1.65 0.09,-0.29 0.31,-1.01 0.31,-1.35 0.08,0.06 0.18,0.27 0.26,0.41 0.83,1.49 1.22,3.05 0.2,4.58 -0.26,0.39 -0.34,0.45 -0.63,0.72 -0.28,0.26 -0.44,0.37 -0.8,0.55 -1.4,0.7 -3.45,0.13 -4.32,-1.04 -0.31,-0.42 -0.56,-0.85 -0.71,-1.38 -0.6,-2.04 -0.14,-4.6 0.98,-6.27l0.35 -0.47 -0.11 0.89c-0.02,0.34 -0.04,0.6 -0.04,0.96zm7.51 7.54l0.44 -0.73c0.56,-0.92 0.77,-1.53 1.03,-2.54 0.08,-0.32 0.1,-0.7 0.15,-1.02 0.14,-1.06 -0.4,-2.9 -0.93,-3.79l-0.68 -1.09c-0.08,-0.13 -0.17,-0.23 -0.26,-0.35 -0.52,-0.69 -1.68,-1.96 -2.28,-2.46l-0.08 -0.06c-0.14,-0.12 -0.41,-0.4 -0.58,-0.52 0.11,1.27 0.14,1.79 0.14,3.15l-0.04 1.1 -0.85 -1.49c-0.09,-0.19 -0.17,-0.34 -0.26,-0.55 -0.38,-0.9 -0.59,-1.52 -0.59,-2.56 -0,-1.68 0.96,-2.5 2.32,-3.16 0.19,-0.09 0.4,-0.15 0.58,-0.24 -0.01,0.22 -0.06,0.33 -0.04,0.78 0.04,0.76 0.55,1.69 0.98,2.28l1.67 1.98c0.08,0.08 0.13,0.13 0.21,0.21l0.96 1.06c0.08,0.09 0.12,0.13 0.2,0.23 0.13,0.16 0.24,0.28 0.36,0.46 1.5,2.18 2.2,5.13 0.51,7.38 -0.38,0.5 -0.75,0.84 -1.26,1.18 -0.28,0.19 -0.76,0.44 -1.07,0.55 -0.18,0.07 -0.42,0.2 -0.63,0.22zm-5.38 -13.17c0,0.44 -0.02,0.66 0.04,1.09 0.05,0.4 0.27,1.09 0.38,1.43 0.13,0.4 0.57,1.3 0.77,1.64l0.89 1.49c0.12,0.19 0.16,0.17 0.12,0.41 -0.03,0.19 -0.05,0.33 -0.08,0.52 -0.05,0.33 -0.17,0.88 -0.28,1.2l-0.24 0.65c-0.22,0.5 -0.54,1.1 -1.03,1.38 -1.61,0.93 -2.09,-2.45 -2.09,-3.58 0,-0.69 -0.01,-1.32 0.08,-2.01l0.35 -1.99c-0.22,0.06 -1.13,0.91 -1.26,1.07 -2.24,2.68 -2.82,8.33 0.66,10.08 0.75,0.38 1.41,0.46 2.34,0.46 0.77,0 1.72,-0.46 2.26,-0.96l0.21 -0.18c0.01,-0.01 0.01,-0.01 0.02,-0.02 0.01,-0.01 0.01,-0.01 0.02,-0.02 0.52,-0.57 0.81,-1.03 1.06,-1.78 0.18,-0.54 0.2,-1.09 0.16,-1.64 -0.06,-0.83 -0.76,-2.32 -1.21,-3 -0.35,-0.53 -0.33,-0.45 -0.25,-1.04 0.07,-0.56 0.05,-2.17 0.05,-2.79 0,-0.18 -0.03,-0.16 -0.04,-0.32 0.16,0.11 0.45,0.44 0.61,0.59l0.44 0.48c0.4,0.41 0.89,1.1 1.21,1.58 1.46,2.2 1.66,4.67 0.37,6.99l-0.38 0.65c-0.34,0.53 -0.43,0.67 -0.85,1.2 -0.16,0.2 -0.31,0.38 -0.45,0.58 0.5,-0.04 1.85,-0.44 2.29,-0.61 0.38,-0.15 0.64,-0.29 0.98,-0.47 0.16,-0.09 0.31,-0.2 0.45,-0.29 0.5,-0.35 0.73,-0.59 1.14,-1.05 0.65,-0.74 1.2,-2.1 1.2,-3.19 0,-1.16 -0.02,-1.71 -0.43,-2.83l-0.29 -0.71c-0.36,-0.78 -1.03,-1.82 -1.61,-2.42l-0.97 -1.04c-0.05,-0.05 -0.08,-0.07 -0.12,-0.13l-1.3 -1.5 -0.62 -0.91c-0.43,-0.78 -0.69,-1.55 -0.36,-2.43 0.06,-0.15 0.23,-0.49 0.24,-0.64l-1.21 0.38c-0.6,0.21 -1.25,0.54 -1.74,0.91 -0.84,0.64 -1.51,1.63 -1.51,2.78z"/>
 </g>
</svg>
