<?xml version="1.0" encoding="UTF-8"?>
<!DOCTYPE svg PUBLIC "-//W3C//DTD SVG 1.1//EN" "http://www.w3.org/Graphics/SVG/1.1/DTD/svg11.dtd">
<!-- Creator: CorelDRAW -->
<svg xmlns="http://www.w3.org/2000/svg" xml:space="preserve" width="58.5048mm" height="89.5192mm" version="1.1" style="shape-rendering:geometricPrecision; text-rendering:geometricPrecision; image-rendering:optimizeQuality; fill-rule:evenodd; clip-rule:evenodd"
viewBox="0 0 5847.54 8947.42"
 xmlns:xlink="http://www.w3.org/1999/xlink"
 xmlns:xodm="http://www.corel.com/coreldraw/odm/2003">
 <defs>
  <style type="text/css">
   <![CDATA[
    .fil0 {fill:white}
   ]]>
  </style>
 </defs>
 <g id="Capa_x0020_1">
  <metadata id="CorelCorpID_0Corel-Layer"/>
  <g id="_2518305570032">
   <path class="fil0" d="M4298.92 5094.38c317.07,0 614.02,151.24 764.63,428.56 46.48,85.57 98.54,210.73 98.54,307.67l-1726.34 0c8.09,-97.09 58.04,-227.62 97.91,-299.83 94.26,-170.78 234.58,-301.96 421.84,-373.63 90.77,-34.74 222.85,-62.77 343.43,-62.77zm1337.06 2064.83c-14.63,-54.82 -361.58,-408.16 -372.34,-448.51 -18.63,4.98 -8.68,2.18 -21.81,12.05l-129.26 116.15 -182.54 105.18c-36.97,15.33 -59.03,26.03 -96.75,38.65 -336.16,112.51 -800.62,66.38 -1076.12,-144.94 -92.61,-71.04 -133.64,-121.34 -196.15,-218.51 -30.37,-47.22 -50.51,-81.46 -71.39,-140.17 -15.68,-44.12 -44.28,-115.36 -45.41,-166.15l2394.87 0c0,-77.28 8.47,-124.31 8.47,-194.63 0,-255.94 -39.84,-480.6 -111.12,-667.42 -54.83,-143.7 -188.31,-364.82 -301.3,-477.25 -137.33,-136.64 -270.06,-236.73 -458.97,-319.57 -475.9,-208.67 -1053.23,-177.05 -1512.41,79.01 -60.46,33.71 -99.14,61.47 -152.53,101.34 -160.53,119.86 -253.86,232.97 -362.86,398.76 -57.8,87.91 -125.39,232.83 -155.74,343.54 -17.38,63.34 -39.31,135.79 -49.56,204.32 -32.97,220.55 -27.51,468.93 20.56,687.83 16.75,76.29 32.21,128.77 57.92,195.96 13.37,34.97 25.43,58.92 38.63,88.31 235.04,523.22 705.03,803.64 1264.37,885.08 111.09,16.17 356.73,23.98 477.79,10.56 179.63,-19.89 251.28,-36.19 420.8,-86.95 59.87,-17.92 131.34,-47.48 181.31,-72.56 129.85,-65.21 351.32,-210.28 431.54,-330.07z"/>
   <path class="fil0" d="M1971.75 6702.24l0 59.23c0,119.85 -124.44,210.78 -212.61,244.37 -362.68,138.12 -915.08,25.39 -1260.09,-125.66 -41.36,-18.1 -75.12,-30.9 -114.66,-54.58 -38.03,-22.76 -76.97,-44.75 -113.58,-64.13l-100.39 204.27c-6.63,12.94 -10.98,21.06 -17.09,33.68l-153.32 303.65c39.38,58.8 281.66,156.13 368.73,189.79 358.8,138.69 899.06,201.31 1300.77,134.18 329.88,-55.13 663.46,-172.15 860.75,-450.93 144.83,-204.64 143.88,-325.91 143.88,-550.03 0,-299.48 -221.18,-548.29 -489.74,-644.23 -264.71,-94.55 -321.59,-109.24 -606.66,-154.96 -225.7,-36.2 -782.26,-75.19 -782.26,-360.17 0,-145.47 65.78,-235.26 192.02,-290.33 351.13,-153.18 922,-58.24 1232.46,109.82 23.82,12.89 69.37,39.52 90.29,45.11 6.95,-29.82 47.18,-108.68 64.08,-139.01 66.54,-119.4 139.5,-284.02 206.72,-411.04 -246.13,-130.23 -303.8,-140.84 -568.76,-201.32 -363.63,-83 -862.38,-87.58 -1205.18,26.77 -64.06,21.37 -173.48,61.9 -233.4,96.64 -109.45,63.47 -196.84,124.37 -276.26,223.02 -25.08,31.14 -53.78,58.82 -77.58,91.66 -105.9,146.17 -115.14,291.54 -133.18,459.74 -7.77,72.3 34.13,275.79 66.63,351.86 211.2,494.49 991.24,519.38 1411.56,602.5 97.09,19.2 296.35,72.42 357.73,150.01 22.11,27.96 49.17,72.8 49.17,120.09z"/>
   <path class="fil0" d="M1726.33 2318.7c0,317.73 12.57,521.23 110.98,794.5 82.52,229.15 281.06,482.19 554.88,353.72 109.09,-51.18 191.76,-135.87 256.68,-234.14 96.17,-145.56 228.35,-503.14 228.35,-660.21 24.08,17.63 94.4,163.43 112.83,200.27 36.51,72.97 69.21,142.86 93.95,227.63 50.9,174.32 79.31,364.38 10.86,542.9 -45.96,119.86 -81.25,210.58 -173.2,309.16 -92.64,99.34 -138.78,146.43 -270.1,212.25 -181.6,91.04 -410.28,96.26 -596.34,40.63 -206.99,-61.88 -390.64,-178.69 -497.8,-365.37 -15.86,-27.62 -30.43,-51.52 -45.66,-81.28 -263.02,-514.06 -104.47,-1374.14 248.42,-1780.12l-25.4 211.54c-4.05,81.57 -8.46,143.14 -8.46,228.51zm1794.04 1802.49c7.98,-29.85 34.65,-60.14 50.86,-84.54 130.78,-196.85 200.2,-361.22 271.79,-582.91 41.83,-129.51 46.79,-228.15 64.32,-358.81 11.5,-85.85 -3.09,-203.86 -12.05,-271.07 -50.82,-381.31 -214.23,-685.16 -434.16,-979.07 -138.21,-184.72 -243.02,-289.56 -404.08,-450.62 -48.46,-48.45 -87.23,-94.25 -142.41,-136.85 -38.7,-29.88 -111.1,-119.87 -155.89,-131.83 19.05,81.8 17.77,265.22 25.84,363.45 13.49,164.48 7.64,346.56 8.03,516.66 0.12,55.76 -4.93,84.27 -8.48,126.93l-106.47 -172.79c-197.78,-334.35 -413.28,-856.84 -240.41,-1240.35 93.18,-206.72 292.27,-354.45 496.72,-442.61 47.8,-20.61 93.9,-35.66 137.88,-56.76 -1.2,53.49 -13.68,80.02 -8.57,186.27 11.83,245.51 178.68,472.36 316.91,656.27 62.81,83.56 137.74,157.15 178.9,210.37 32.98,42.65 62.08,62.09 94.16,100.47l279.8 304.12c177.29,178.13 363.93,494.59 443.14,733.13 28.89,86.96 62.99,211.51 74.42,314.86 40.91,369.77 -20.11,662.99 -220.55,929.12 -89.96,119.44 -180.69,201.1 -301.8,282.11 -85.96,57.5 -314.31,176.67 -407.92,184.46zm-1286.28 -3148.03l0 135.4c0,287.01 172.99,671.01 284.12,858.31l211.5 355.48c27.15,44.8 37.77,42.41 30.03,97.92 -25.42,182.26 -68.96,395.86 -144.6,567.2 -30.22,68.46 -58.06,129.86 -100.45,187.28 -262.11,355.06 -481.01,140.35 -575.12,-206.14 -78.25,-288.08 -89.14,-675.75 -50.28,-986.25l82.46 -476.07c-51.04,13.63 -276.66,225.93 -302.16,256.37 -90.16,107.7 -157.27,215.04 -222.55,344.44 -340.96,675.84 -346.82,1877.67 565.14,2134.44 172.28,48.52 401.25,61.64 576.36,5.62 136.77,-43.76 285.95,-138.14 387.02,-239.2l72.25 -80.07c209.86,-258.8 289.5,-609.69 185.96,-933.32 -18.93,-59.18 -34.02,-106.64 -57.97,-162.05l-235.73 -441.28c-35.87,-57.88 -28.51,-69.81 -14.38,-176.41 17.75,-133.85 10.78,-518.5 10.78,-666.22 0,-42.53 -7.61,-37.89 -8.47,-76.16 113.49,75.99 422.05,451.99 512.46,587.65 383.7,575.69 435.23,1105.35 113.87,1722.69 -14.02,26.95 -27.83,47.75 -42.36,76.11 -91.76,179.14 -262.02,359.64 -355.49,499.23 39.91,-3.33 98.77,-18.23 141.8,-27.46 132.06,-28.29 282.57,-65.24 405.9,-118.78 149.35,-64.84 204.54,-87.89 340.93,-183.74 106.19,-74.62 189.25,-150.41 272.69,-251.97 160.61,-195.49 285.77,-491.94 285.77,-763.59 0,-370.62 -17.9,-439.77 -134.31,-762.71 -69.14,-191.79 -238.53,-443.76 -367.6,-597.12 -39.89,-47.41 -77.13,-83.86 -114.59,-130.81l-401.04 -436.74c-154.02,-164.56 -378.77,-492.95 -378.77,-712.89 0,-90.81 2.6,-132.37 35.02,-218.85 13.55,-36.13 54.95,-116.01 58.07,-153.49 -99.73,47.85 -414.4,89.01 -706.14,309.35 -205.6,155.28 -360.13,394.21 -360.13,663.82z"/>
   <path class="fil0" d="M2648.74 8504.74c0,-93 10.35,-167.32 77.99,-235.12 155.29,-155.69 472.07,-61.83 472.07,184.35 0,91.24 -12.39,169.53 -77.99,235.12 -157.37,157.38 -472.07,54.22 -472.07,-184.35zm-220.02 -50.77c0,270.07 180.83,490.82 473.89,490.82l42.32 0c424.11,0 631.76,-498.04 336.41,-793.39 -216.73,-216.73 -649.9,-186.4 -804.81,121.9 -20.75,41.3 -47.82,123.75 -47.82,180.67z"/>
   <path class="fil0" d="M4121.21 8513.2l-135.4 0 0 -313.11c145.95,0 355.42,-30.05 355.42,160.79 0,40.39 -26.07,94.6 -65.53,120.64 -33.94,22.4 -99.67,31.68 -154.49,31.68zm-346.97 414.65l211.56 0 0 -245.41c219.61,0 163.33,-32.13 265.78,115.03 32.27,46.37 59.79,85.8 89.64,130.37l228.49 0 -194.63 -287.72c144.73,-76.59 177.71,-151.81 177.71,-313.11 0,-171.33 -165.38,-296.19 -338.5,-296.19l-440.05 0 0 897.02z"/>
   <path class="fil0" d="M1751.72 8504.74l-194.63 0 0 -304.65c202.86,0 355.42,-27.99 355.42,177.71 0,35.06 -26.5,78.15 -48.97,94.89 -26.62,19.84 -67.23,32.04 -111.82,32.04zm-406.2 423.12l211.56 0 0 -245.41c209.94,0 316.03,24.29 469.27,-89.26 192.07,-142.32 128.38,-562.36 -240.79,-562.36l-440.05 0 0 897.02z"/>
   <path class="fil0" d="M270.8 8293.17c0,134.68 98.43,210.88 206.52,241.99 101.55,29.23 318.15,58.98 318.15,138.82 0,144.63 -251.57,101.58 -340.96,70.16 -46.51,-16.34 -101.2,-53.22 -132.93,-61.7l-67.71 160.79c26.01,13.75 41.37,25.19 70.25,39.75 26.28,13.25 50.13,20.34 79.69,30.32 180.2,60.91 452.09,50.44 565.93,-115.83 27.19,-39.7 37.29,-89.43 37.29,-140.42 0,-177.29 -172.92,-227.17 -315.25,-260.2 -71.23,-16.54 -175.01,-31.68 -201.61,-86.8 -43.83,-90.82 107.64,-161.85 293.57,-106.71 44.77,13.27 83.74,38.65 121.74,47.51 13.61,-28.39 56.79,-131.42 59.23,-160.79 -129.88,-68.73 -184.76,-76.16 -346.96,-76.16 -169.48,0 -346.96,95.34 -346.96,279.26z"/>
   <polygon class="fil0" points="4798.2,8200.09 5085.92,8200.09 5085.92,8927.85 5305.94,8927.85 5305.94,8200.09 5593.67,8200.09 5593.67,8030.83 4798.2,8030.83 "/>
  </g>
 </g>
</svg>
