<?xml version="1.0" encoding="UTF-8"?>
<!DOCTYPE svg PUBLIC "-//W3C//DTD SVG 1.1//EN" "http://www.w3.org/Graphics/SVG/1.1/DTD/svg11.dtd">
<!-- Creator: CorelDRAW -->
<svg xmlns="http://www.w3.org/2000/svg" xml:space="preserve" width="58.5048mm" height="109.813mm" version="1.1" style="shape-rendering:geometricPrecision; text-rendering:geometricPrecision; image-rendering:optimizeQuality; fill-rule:evenodd; clip-rule:evenodd"
viewBox="0 0 5847.54 10975.77"
 xmlns:xlink="http://www.w3.org/1999/xlink"
 xmlns:xodm="http://www.corel.com/coreldraw/odm/2003">
 <defs>
  <style type="text/css">
   <![CDATA[
    .fil0 {fill:white}
   ]]>
  </style>
 </defs>
 <g id="Capa_x0020_1">
  <metadata id="CorelCorpID_0Corel-Layer"/>
  <g id="_2518309455248">
   <path class="fil0" d="M4298.92 5094.38c319.29,0 614.77,153.05 764.63,428.57 46.48,85.46 98.54,210.89 98.54,307.66l-1726.34 0c23.23,-279.05 254.65,-584.99 519.26,-673.94 102.36,-34.4 210.91,-62.29 343.92,-62.29zm-8.47 2555.66c322.68,0 580.3,-4.26 885.78,-146.64 142.79,-66.55 380.88,-226.43 459.74,-344.19 -12.14,-45.47 -58.93,-77.2 -88.21,-114.89l-292.6 -333.61c-92.53,61.96 -121.22,171.32 -443.21,276.09 -327.68,106.62 -776.71,61.57 -1049.99,-145.35 -24.37,-18.45 -33.66,-29.36 -55.44,-46.11 -56.1,-43.13 -107.54,-117.01 -145.52,-176.05 -45.07,-70.05 -114.84,-218.42 -116.8,-306.33l2394.87 0c0,-77.27 8.47,-124.3 8.47,-194.63 0,-411.44 -91.24,-727.66 -315.42,-1030.11 -15.28,-20.62 -24.7,-32.69 -42.12,-50.95 -107.57,-112.76 -93.72,-115.83 -249.28,-233.07 -135.24,-101.93 -368.02,-207.31 -529.21,-240.88 -365.67,-76.15 -778.47,-62.84 -1109.44,96.55 -106.37,51.22 -379.04,215.18 -458.94,319.59l-90.08 104.56c-65.73,74.74 -106.79,150.24 -153.22,236.05l-62.56 132.07c-43.67,101.29 -62.02,182.5 -88.84,300.45 -65.51,288.22 -19.03,720.78 109.05,994.81 118.36,253.26 253.36,419.64 477.84,588.42l244.51 144.76c204.55,93.33 481.12,169.45 710.64,169.45z"/>
   <path class="fil0" d="M1971.75 6702.24l0 59.24c0,120.4 -125.94,213.07 -218.78,246.66 -360.92,130.53 -893.98,29.63 -1253.92,-127.95 -86.37,-37.81 -148.95,-76.75 -228.25,-118.71l-270.8 541.6c25.09,37.46 181.94,114.6 235.73,136.61 91.45,37.43 175.78,71.58 280.48,100.33 93.51,25.68 199.01,57.39 298.49,73.86 460.42,76.24 1041.51,57.51 1441.21,-187.44 211.13,-129.38 418.22,-382.53 418.22,-639.58 0,-249 -3.21,-417.02 -187.03,-608.44 -148.28,-154.4 -360.11,-232.36 -589.79,-290.29 -354.58,-89.44 -1101.84,-91.98 -1101.84,-421.4 0,-145.62 64.29,-234.32 192.03,-290.33 247.74,-108.62 684.4,-87.71 945.06,-8.98 198.83,60.05 351,156.78 377.69,163.91 8.87,-38.06 250.51,-511.73 270.79,-550.05 -406.63,-215.16 -783.66,-262.34 -1243.97,-262.34l-299.63 30.4c-136.26,28.88 -127.28,23.38 -262.12,67.92 -164.31,54.28 -313.58,137.62 -422.02,246.52 -116.85,117.34 -209.51,245.23 -244.34,415.73 -76.47,374.4 40.21,710.37 384.64,895.29 173.22,93 430.69,158.38 641.78,187.54 54.35,7.52 91.23,13.79 147.25,22 204.34,29.97 689.12,82.29 689.12,317.91z"/>
   <path class="fil0" d="M3520.37 4121.2zm-1794.04 -1802.49c0,317.3 12.63,521.39 110.98,794.5 167.04,463.88 534.05,493.05 767.96,177.53 90.21,-121.68 152.28,-239.4 197.66,-394.71 20.4,-69.85 74.28,-240.3 74.28,-323.45 19.66,14.4 42.78,64.6 61.95,98.84 199.11,355.72 290.77,729.01 48.1,1094.4 -62.37,93.9 -81.98,107.54 -150.3,171.26 -66.44,61.98 -105.17,87.31 -191.02,130.54 -333.43,167.93 -825.04,30.06 -1032.06,-248.62 -75.05,-101.02 -133.12,-204.03 -169.94,-329.34 -143.37,-487.9 -33.96,-1099.13 233.29,-1499.33l82.96 -111.68 -25.4 211.55c-4.05,81.56 -8.46,143.14 -8.46,228.5zm1794.04 1802.49l105.25 -174.01c133.3,-220.28 184.16,-365.45 246.86,-607.84 19.67,-76.04 24.52,-167.26 34.87,-244.4 33.88,-252.65 -94.48,-692.11 -222.62,-906.74l-162.59 -260.53c-20.28,-30.45 -40.3,-55.19 -61.01,-82.86 -123.1,-164.53 -400.81,-467.68 -545.41,-588.55l-18.49 -15.36c-34.19,-29.24 -97.03,-96.09 -138.48,-123.86 25.34,304.55 33.85,427.8 33.85,753.16l-8.47 262.34 -203.1 -355.43c-22.49,-44.98 -41.72,-80.96 -62.87,-131.76 -89.63,-215.22 -140.09,-363.63 -140.23,-612.92 -0.22,-400.47 228.55,-597.61 555.55,-756.12 45.43,-22.02 94.53,-35.24 138.37,-56.27 -1.2,53.48 -13.68,80.01 -8.57,186.27 8.71,180.59 131.36,403.96 233.46,545.09l399.08 472.54c19.1,19.01 31.85,31.75 50.91,50.63l228.61 253.75c19.27,21.64 27.9,32.02 46.92,54.64 31.8,37.82 56.68,67.54 85.46,109.18 359.63,520.38 526.53,1225.88 122.35,1762.5 -90.53,120.2 -180.18,200.56 -301.79,282.12 -67.89,45.53 -180.59,105.25 -256.66,132.61 -43.98,15.83 -99.53,47.54 -151.26,51.83zm-1286.28 -3148.02c0,105.26 -3.65,156.97 9.75,261.05 12.23,95.14 64.06,260.09 90.65,340.93 31.76,96.53 135.87,311.08 183.72,391.73l211.74 355.24c29.85,44.88 37.63,41.23 29.78,98.17 -6.27,45.41 -12.62,78.17 -20.29,124.49 -12.97,78.42 -41.33,210.25 -67.54,287.89l-56.75 154.81c-52.23,118.31 -130.07,262.65 -245.87,329.58 -383.61,221.8 -499.08,-586.08 -499.08,-854.5 0,-164.95 -1.49,-315.74 19.09,-480.19l82.46 -476.07c-52.88,14.12 -270.51,218.58 -302.16,256.37 -535.59,639.69 -674.12,1991.38 158.25,2409.34 180.1,90.42 337.88,109.96 558.57,109.96 184.35,0 411.47,-109.36 539.5,-230.57l49.65 -43.45c1.23,-1.23 2.98,-3.02 4.19,-4.28 1.2,-1.25 2.92,-3.08 4.09,-4.37 125.19,-136.94 192.7,-245.82 252.19,-424.8 42.51,-127.89 47.76,-260.46 38.55,-392.26 -13.78,-197.27 -182.26,-554.66 -288.92,-718.1 -83.32,-127.64 -78.66,-108.31 -59.97,-249.32 17.75,-133.85 10.78,-518.49 10.78,-666.22 0,-42.53 -7.61,-37.89 -8.47,-76.16 38.09,25.51 108.21,103.98 145.98,141.75l105.69 114.34c95.25,97.83 212.19,261.71 289.85,378.68 349.64,526.62 397.73,1115.34 87.42,1669.72l-90.82 154.59c-82.4,125.7 -103.71,160.24 -203.18,287.64 -37.55,48.1 -73.81,90.23 -106.45,138.97 120.62,-10.03 441.97,-104.25 547.66,-146.26 90.87,-36.12 152.65,-68.51 233.55,-113.4 38.49,-21.36 74.19,-46.78 107.44,-70.27 119.47,-84.47 174.94,-141 272.6,-252.07 155.41,-176.75 285.83,-502.05 285.83,-763.52 0,-277.18 -4.96,-408.76 -102.48,-676.07l-68.45 -168.51c-85.2,-186.33 -246.22,-435.35 -385.32,-579.4l-232.91 -249.43c-11.79,-11.7 -18.1,-17.48 -29.28,-29.97l-309.75 -358.77 -147.05 -216.84c-103.63,-185.85 -164.76,-370.27 -86.06,-580.13 13.55,-36.14 54.95,-116.01 58.07,-153.5l-290.02 90.78c-144.18,50.69 -298.6,129.46 -416.08,218.61 -200.48,152.1 -360.16,388.69 -360.16,663.79z"/>
   <path class="fil0" d="M1379.38 10704.97c0,-38.01 18.39,-67.1 42.31,-84.63 16.95,25.32 25.39,17.17 25.39,50.77 0,55.6 -67.7,84.4 -67.7,33.85zm2648.74 -541.6c7.58,-28.38 3.3,-18.5 24.68,-34.55 44.06,-33.07 89.31,-50.06 153.03,-50.06 -15.98,59.86 -107.47,78.78 -177.71,84.62zm-1269.36 -253.87c6.48,-77.88 158.74,-344.38 201.38,-407.92 27.22,-40.54 211.39,-328.32 289.44,-328.32 85.38,0 -54.25,245.36 -65.98,264.07 -35.75,57.05 -138.23,205.65 -185.63,254.41 -14.85,15.27 -24.42,22.55 -37.38,38.78l-201.84 178.97zm-313.11 287.73c-50.91,-1.13 -82.16,-16.92 -143.86,-16.92 -282.23,0 -467.44,51.01 -718.14,153.49 -29.17,11.92 -57.14,26.89 -85.8,41.13 -14.94,7.44 -28.5,13.28 -45.19,22.52l-39.43 28.27c-30.64,-20.52 -279.26,-178.61 -279.26,-228.49 0,-55.48 100.58,-32.65 178.18,-25.8 52.98,4.68 127.99,12.85 87.01,-43.27 -67.42,-92.3 -359.22,-122.84 -413.68,-11.03 -48.8,100.2 104.1,233.53 180.54,285.01 27.37,18.43 53.13,31.29 78.02,48.91 28.41,20.1 42.82,33.22 76.1,50.83 -12.51,53.72 -155.72,219.17 -18.59,323.24 58.22,44.19 264.01,63.36 264.01,-162.45 0,-52.74 -23.92,-83.72 -42.32,-118.48 65.57,-34.69 129.49,-62.58 206.27,-89.91 231.76,-82.56 450.9,-141.93 690.75,-197.8l-89.34 291.46c-19.38,77.76 -78.98,333.64 -29.14,427.84 58.05,-4.84 92.52,-75.41 129.32,-124.56 14.23,-19.02 21.18,-29.07 34.88,-49.75 48.12,-72.62 92.36,-138.2 140.38,-206.57 54.78,-77.99 160.57,-206.93 230.67,-277.08 31.56,-31.59 48.87,-68.5 107.9,-69.81 0,102.33 -138.06,456.97 101.55,456.97 334.84,0 656.36,-370.2 727.76,-389.27 -47.07,98.09 24.02,198.07 88.04,242 50.19,34.44 143.33,54.19 225.08,54.19 250.67,0 589.31,-168.8 776.17,-323.95 35.2,-29.24 55.59,-52.34 44.69,-99.18 -215.17,50.13 -521.53,279.26 -837.78,279.26 -285.49,0 -188.22,-200.74 -129.8,-222.88 43.89,-16.64 289.04,-13.97 359.99,-105.45 109.97,-141.78 -87.02,-224.21 -277.54,-108.3 -58.63,35.67 -127.52,90.57 -168.8,144.32 -23.92,31.14 -89.79,60.57 -130.81,80.75l-201.45 120.12c-62,39.12 -500.93,318.55 -500.93,150.67 0,-128.88 118.4,-423.12 -42.32,-423.12 -55.23,0 -106.72,35.96 -140.39,62.7 -21.99,17.46 -33.53,28.56 -55.51,46.04 -20.86,16.6 -34.14,31.88 -49.51,52.04 -13.56,17.8 -166.76,193.4 -203.1,203.1 5.01,-60.18 123.67,-335.36 154.46,-378.66 44.46,-62.52 136.66,-111.22 215.91,-181.83 68.93,-61.42 139.27,-126.66 197.87,-199.86 50.75,-63.42 126.67,-158.75 167.66,-230.08 48.6,-84.6 155.47,-282.89 86.89,-373.95 -63.66,-84.53 -166.57,-10.31 -235.33,39.34 -91.96,66.41 -171.5,161.65 -239.31,251.51 -96.98,128.54 -207.9,319.11 -277.62,458.6l-118.47 253.88c-14.99,33.44 -20.95,60.53 -36.68,90.25z"/>
   <path class="fil0" d="M2970.32 8758.62c-88.02,0 -177.41,3.38 -251.62,-78.42 -134.83,-148.63 -89.16,-479.09 209.82,-488.24 125.67,-3.85 270.28,103.93 270.28,262.01 0,96.75 -8.96,145.07 -62.48,216.78 -27.76,37.19 -105.37,87.88 -166.01,87.88zm-541.6 -296.19c0,653 990.1,627.95 990.1,16.92 0,-258.59 -207.33,-465.43 -465.44,-465.43l-59.23 0c-246.27,0 -465.44,205.5 -465.44,448.5z"/>
   <path class="fil0" d="M4180.44 8504.74l-194.63 0 0 -304.65c142.07,0 355.42,-32.1 355.42,160.79 0,77.38 -63.03,143.86 -160.79,143.86zm-406.2 423.13l211.56 0 0 -245.41c221.25,0 172.92,-24.51 265.67,115.13 17.39,26.19 29.11,39.49 45.86,64.16 15.98,23.55 29,43.86 43.9,66.12l228.49 0c-16.4,-31 -26.27,-42.55 -47.21,-71.27l-147.43 -216.45c265.1,-140.27 188.44,-436.63 81.36,-521.41 -50.33,-39.85 -140.54,-87.89 -225.23,-87.89l-456.97 0 0 897.02z"/>
   <path class="fil0" d="M1751.72 8504.74l-194.63 0 0 -304.65c196.97,0 355.42,-30.73 355.42,177.71 0,73.38 -69.92,126.94 -160.79,126.94zm-406.2 423.13l211.56 0 0 -245.41c189.03,0 434.4,26.51 536.23,-174.62 115.58,-228.33 -45.91,-476.99 -290.82,-476.99l-456.97 0 0 897.02z"/>
   <path class="fil0" d="M270.8 8293.18c0,129.22 93.55,209.5 206.52,241.99 105.71,30.39 318.15,58.38 318.15,138.82 0,153.94 -295.06,100.67 -406.44,42.55 -24.52,-12.78 -37.27,-27.06 -67.46,-34.08l-67.71 160.78c92.53,48.97 40.02,31.69 157.44,71.04 136.01,45.59 355.97,48.14 477.34,-37.09 75.56,-53.06 118.38,-120.49 118.38,-220.12 0,-179.32 -171.43,-225.66 -314.7,-260.75 -70.22,-17.2 -175.07,-30.29 -202.25,-86.17 -16.86,-34.68 5.97,-75.15 32.73,-94.99 64.37,-47.73 188.08,-33.2 260.91,-11.78 44.91,13.2 83.62,38.6 121.76,47.49 13.61,-28.38 56.79,-131.42 59.23,-160.78 -17.28,-9.15 -36.48,-20.7 -54.95,-29.68 -210.24,-102.16 -638.96,-60.28 -638.96,232.77z"/>
   <polygon class="fil0" points="4798.2,8200.09 5085.92,8200.09 5085.92,8927.86 5305.94,8927.86 5305.94,8200.09 5593.67,8200.09 5593.67,8030.84 4798.2,8030.84 "/>
  </g>
 </g>
</svg>
